<?xml version="1.0" standalone="no"?>
<!-- Created with sudo2svg -->

<!DOCTYPE svg PUBLIC "-//W3C//DTD SVG 1.1//EN" "http://www.w3.org/Graphics/SVG/1.1/DTD/svg11.dtd">
<svg width='744' height='1052' xmlns="http://www.w3.org/2000/svg" xmlns:xlink="http://www.w3.org/1999/xlink">
<g transform="translate(87 83)">
<rect x="0" y="0" height="270" width="270" style="fill:white;"/>
<rect x="30" y="0" height="270" width="30" style="stroke:#999999;fill:none;stroke-width:1"/>
<rect x="120" y="0" height="270" width="30" style="stroke:#999999;fill:none;stroke-width:1"/>
<rect x="210" y="0" height="270" width="30" style="stroke:#999999;fill:none;stroke-width:1"/>
<rect x="0" y="30" height="30" width="270" style="stroke:#999999;fill:none;stroke-width:1"/>
<rect x="0" y="120" height="30" width="270" style="stroke:#999999;fill:none;stroke-width:1"/>
<rect x="0" y="210" height="30" width="270" style="stroke:#999999;fill:none;stroke-width:1"/>
<rect x="90" y="0" height="270" width="90" style="stroke:black;fill:none;stroke-width:2"/>
<rect x="0" y="90" height="90" width="270" style="stroke:black;fill:none;stroke-width:2"/>
<rect x="0" y="0" height="270" width="270" style="stroke:black;fill:none;stroke-width:2"/>
<text font-family='Arial' font-style='bold' font-size='24' stroke='none' fill='#000000' text-anchor="middle">
<!-- puzzle-text 270 20 -->
</text></g>
<g transform="translate(387 83)">
<rect x="0" y="0" height="270" width="270" style="fill:white;"/>
<rect x="30" y="0" height="270" width="30" style="stroke:#999999;fill:none;stroke-width:1"/>
<rect x="120" y="0" height="270" width="30" style="stroke:#999999;fill:none;stroke-width:1"/>
<rect x="210" y="0" height="270" width="30" style="stroke:#999999;fill:none;stroke-width:1"/>
<rect x="0" y="30" height="30" width="270" style="stroke:#999999;fill:none;stroke-width:1"/>
<rect x="0" y="120" height="30" width="270" style="stroke:#999999;fill:none;stroke-width:1"/>
<rect x="0" y="210" height="30" width="270" style="stroke:#999999;fill:none;stroke-width:1"/>
<rect x="90" y="0" height="270" width="90" style="stroke:black;fill:none;stroke-width:2"/>
<rect x="0" y="90" height="90" width="270" style="stroke:black;fill:none;stroke-width:2"/>
<rect x="0" y="0" height="270" width="270" style="stroke:black;fill:none;stroke-width:2"/>
<text font-family='Arial' font-style='bold' font-size='24' stroke='none' fill='#000000' text-anchor="middle">
<!-- puzzle-text 270 20 -->
</text></g>
<g transform="translate(87 383)">
<rect x="0" y="0" height="270" width="270" style="fill:white;"/>
<rect x="30" y="0" height="270" width="30" style="stroke:#999999;fill:none;stroke-width:1"/>
<rect x="120" y="0" height="270" width="30" style="stroke:#999999;fill:none;stroke-width:1"/>
<rect x="210" y="0" height="270" width="30" style="stroke:#999999;fill:none;stroke-width:1"/>
<rect x="0" y="30" height="30" width="270" style="stroke:#999999;fill:none;stroke-width:1"/>
<rect x="0" y="120" height="30" width="270" style="stroke:#999999;fill:none;stroke-width:1"/>
<rect x="0" y="210" height="30" width="270" style="stroke:#999999;fill:none;stroke-width:1"/>
<rect x="90" y="0" height="270" width="90" style="stroke:black;fill:none;stroke-width:2"/>
<rect x="0" y="90" height="90" width="270" style="stroke:black;fill:none;stroke-width:2"/>
<rect x="0" y="0" height="270" width="270" style="stroke:black;fill:none;stroke-width:2"/>
<text font-family='Arial' font-style='bold' font-size='24' stroke='none' fill='#000000' text-anchor="middle">
<!-- puzzle-text 270 20 -->
</text></g>
<g transform="translate(387 383)">
<rect x="0" y="0" height="270" width="270" style="fill:white;"/>
<rect x="30" y="0" height="270" width="30" style="stroke:#999999;fill:none;stroke-width:1"/>
<rect x="120" y="0" height="270" width="30" style="stroke:#999999;fill:none;stroke-width:1"/>
<rect x="210" y="0" height="270" width="30" style="stroke:#999999;fill:none;stroke-width:1"/>
<rect x="0" y="30" height="30" width="270" style="stroke:#999999;fill:none;stroke-width:1"/>
<rect x="0" y="120" height="30" width="270" style="stroke:#999999;fill:none;stroke-width:1"/>
<rect x="0" y="210" height="30" width="270" style="stroke:#999999;fill:none;stroke-width:1"/>
<rect x="90" y="0" height="270" width="90" style="stroke:black;fill:none;stroke-width:2"/>
<rect x="0" y="90" height="90" width="270" style="stroke:black;fill:none;stroke-width:2"/>
<rect x="0" y="0" height="270" width="270" style="stroke:black;fill:none;stroke-width:2"/>
<text font-family='Arial' font-style='bold' font-size='24' stroke='none' fill='#000000' text-anchor="middle">
<!-- puzzle-text 270 20 -->
</text></g>
<g transform="translate(87 683)">
<rect x="0" y="0" height="270" width="270" style="fill:white;"/>
<rect x="30" y="0" height="270" width="30" style="stroke:#999999;fill:none;stroke-width:1"/>
<rect x="120" y="0" height="270" width="30" style="stroke:#999999;fill:none;stroke-width:1"/>
<rect x="210" y="0" height="270" width="30" style="stroke:#999999;fill:none;stroke-width:1"/>
<rect x="0" y="30" height="30" width="270" style="stroke:#999999;fill:none;stroke-width:1"/>
<rect x="0" y="120" height="30" width="270" style="stroke:#999999;fill:none;stroke-width:1"/>
<rect x="0" y="210" height="30" width="270" style="stroke:#999999;fill:none;stroke-width:1"/>
<rect x="90" y="0" height="270" width="90" style="stroke:black;fill:none;stroke-width:2"/>
<rect x="0" y="90" height="90" width="270" style="stroke:black;fill:none;stroke-width:2"/>
<rect x="0" y="0" height="270" width="270" style="stroke:black;fill:none;stroke-width:2"/>
<text font-family='Arial' font-style='bold' font-size='24' stroke='none' fill='#000000' text-anchor="middle">
<!-- puzzle-text 270 20 -->
</text></g>
<g transform="translate(387 683)">
<rect x="0" y="0" height="270" width="270" style="fill:white;"/>
<rect x="30" y="0" height="270" width="30" style="stroke:#999999;fill:none;stroke-width:1"/>
<rect x="120" y="0" height="270" width="30" style="stroke:#999999;fill:none;stroke-width:1"/>
<rect x="210" y="0" height="270" width="30" style="stroke:#999999;fill:none;stroke-width:1"/>
<rect x="0" y="30" height="30" width="270" style="stroke:#999999;fill:none;stroke-width:1"/>
<rect x="0" y="120" height="30" width="270" style="stroke:#999999;fill:none;stroke-width:1"/>
<rect x="0" y="210" height="30" width="270" style="stroke:#999999;fill:none;stroke-width:1"/>
<rect x="90" y="0" height="270" width="90" style="stroke:black;fill:none;stroke-width:2"/>
<rect x="0" y="90" height="90" width="270" style="stroke:black;fill:none;stroke-width:2"/>
<rect x="0" y="0" height="270" width="270" style="stroke:black;fill:none;stroke-width:2"/>
<text font-family='Arial' font-style='bold' font-size='24' stroke='none' fill='#000000' text-anchor="middle">
<!-- puzzle-text 270 20 -->
</text></g>
</svg>
