<?xml version="1.0" standalone="no"?>
<!-- Created with sudo2svg -->

<!DOCTYPE svg PUBLIC "-//W3C//DTD SVG 1.1//EN" "http://www.w3.org/Graphics/SVG/1.1/DTD/svg11.dtd">
<svg width='765' height='990' xmlns="http://www.w3.org/2000/svg" xmlns:xlink="http://www.w3.org/1999/xlink">
<g transform="translate(180 65)">
<rect x="0" y="0" height="405" width="405" style="fill:white;"/>
<rect x="45" y="0" height="405" width="45" style="stroke:#999999;fill:none;stroke-width:1"/>
<rect x="180" y="0" height="405" width="45" style="stroke:#999999;fill:none;stroke-width:1"/>
<rect x="315" y="0" height="405" width="45" style="stroke:#999999;fill:none;stroke-width:1"/>
<rect x="0" y="45" height="45" width="405" style="stroke:#999999;fill:none;stroke-width:1"/>
<rect x="0" y="180" height="45" width="405" style="stroke:#999999;fill:none;stroke-width:1"/>
<rect x="0" y="315" height="45" width="405" style="stroke:#999999;fill:none;stroke-width:1"/>
<rect x="135" y="0" height="405" width="135" style="stroke:black;fill:none;stroke-width:2"/>
<rect x="0" y="135" height="135" width="405" style="stroke:black;fill:none;stroke-width:2"/>
<rect x="0" y="0" height="405" width="405" style="stroke:black;fill:none;stroke-width:2"/>
<text font-family='Arial' font-style='bold' font-size='32' stroke='none' fill='#000000' text-anchor="middle">
<!-- puzzle-text 405 25 -->
</text></g>
<g transform="translate(180 515)">
<rect x="0" y="0" height="405" width="405" style="fill:white;"/>
<rect x="45" y="0" height="405" width="45" style="stroke:#999999;fill:none;stroke-width:1"/>
<rect x="180" y="0" height="405" width="45" style="stroke:#999999;fill:none;stroke-width:1"/>
<rect x="315" y="0" height="405" width="45" style="stroke:#999999;fill:none;stroke-width:1"/>
<rect x="0" y="45" height="45" width="405" style="stroke:#999999;fill:none;stroke-width:1"/>
<rect x="0" y="180" height="45" width="405" style="stroke:#999999;fill:none;stroke-width:1"/>
<rect x="0" y="315" height="45" width="405" style="stroke:#999999;fill:none;stroke-width:1"/>
<rect x="135" y="0" height="405" width="135" style="stroke:black;fill:none;stroke-width:2"/>
<rect x="0" y="135" height="135" width="405" style="stroke:black;fill:none;stroke-width:2"/>
<rect x="0" y="0" height="405" width="405" style="stroke:black;fill:none;stroke-width:2"/>
<text font-family='Arial' font-style='bold' font-size='32' stroke='none' fill='#000000' text-anchor="middle">
<!-- puzzle-text 405 25 -->
</text></g>
</svg>
